<svg width="735" height="307" viewBox="0 0 735 307" fill="none" xmlns="http://www.w3.org/2000/svg">
<path d="M305 66.8425L230.865 25L179 62.4259L253.75 102.31L305 66.8425Z" fill="#1E88E5"/>
<path d="M127.135 25L53 66.829L104.266 102.31L179 62.4259L127.135 25Z" fill="#1E88E5"/>
<path d="M179 142.208L127.135 179.633L53 137.791L104.25 102.31L179 142.208L253.734 102.31L305 137.791L230.865 179.633L179 142.208Z" fill="#1E88E5"/>
<path d="M234.613 193.68C233.306 194.423 231.794 194.788 230.298 194.788C228.486 194.788 226.691 194.247 225.226 193.207L179 159.847L132.774 193.207C130.112 195.125 126.285 195.314 123.371 193.68L100.25 180.633V200.582L179.158 241.101L257.75 200.582V180.619L234.613 193.68Z" fill="#1E88E5"/>
<path d="M322.713 178V114.016H342.4C348.025 114.016 353.05 115.29 357.474 117.839C361.927 120.358 365.398 123.962 367.889 128.649C370.379 133.308 371.624 138.61 371.624 144.558V147.502C371.624 153.449 370.394 158.737 367.933 163.366C365.501 167.995 362.059 171.584 357.605 174.133C353.152 176.682 348.128 177.971 342.532 178H322.713ZM335.896 124.694V167.409H342.269C347.425 167.409 351.365 165.725 354.09 162.355C356.814 158.986 358.206 154.167 358.265 147.897V144.514C358.265 138.01 356.917 133.088 354.222 129.748C351.526 126.379 347.586 124.694 342.4 124.694H335.896ZM407.132 142.36C405.403 142.126 403.88 142.009 402.562 142.009C397.757 142.009 394.607 143.635 393.113 146.887V178H380.413V130.451H392.41L392.762 136.12C395.311 131.755 398.841 129.572 403.353 129.572C404.759 129.572 406.077 129.763 407.308 130.144L407.132 142.36ZM409.725 153.786C409.725 149.069 410.633 144.865 412.449 141.174C414.266 137.482 416.873 134.626 420.271 132.604C423.699 130.583 427.669 129.572 432.181 129.572C438.597 129.572 443.826 131.535 447.869 135.461C451.941 139.387 454.212 144.719 454.681 151.457L454.769 154.709C454.769 162.004 452.732 167.863 448.66 172.287C444.588 176.682 439.124 178.879 432.269 178.879C425.413 178.879 419.935 176.682 415.833 172.287C411.761 167.893 409.725 161.916 409.725 154.357V153.786ZM422.425 154.709C422.425 159.221 423.274 162.678 424.974 165.08C426.673 167.453 429.104 168.64 432.269 168.64C435.345 168.64 437.747 167.468 439.476 165.124C441.204 162.751 442.068 158.972 442.068 153.786C442.068 149.362 441.204 145.935 439.476 143.503C437.747 141.071 435.315 139.855 432.181 139.855C429.075 139.855 426.673 141.071 424.974 143.503C423.274 145.905 422.425 149.641 422.425 154.709ZM505.394 154.665C505.394 161.989 503.724 167.863 500.384 172.287C497.073 176.682 492.591 178.879 486.937 178.879C482.132 178.879 478.25 177.209 475.291 173.869V196.281H462.591V130.451H474.368L474.808 135.109C477.884 131.418 481.897 129.572 486.849 129.572C492.708 129.572 497.264 131.74 500.516 136.076C503.768 140.412 505.394 146.389 505.394 154.006V154.665ZM492.693 153.742C492.693 149.318 491.902 145.905 490.32 143.503C488.768 141.101 486.497 139.899 483.509 139.899C479.524 139.899 476.785 141.423 475.291 144.47V163.938C476.844 167.072 479.612 168.64 483.597 168.64C489.661 168.64 492.693 163.674 492.693 153.742ZM556.15 154.665C556.15 162.282 554.524 168.229 551.272 172.507C548.021 176.755 543.479 178.879 537.649 178.879C532.493 178.879 528.377 176.901 525.301 172.946L524.729 178H513.304V110.5H526.004V134.714C528.934 131.286 532.786 129.572 537.562 129.572C543.362 129.572 547.903 131.711 551.185 135.988C554.495 140.236 556.15 146.228 556.15 153.962V154.665ZM543.45 153.742C543.45 148.938 542.688 145.437 541.165 143.239C539.642 141.013 537.371 139.899 534.354 139.899C530.311 139.899 527.527 141.555 526.004 144.865V163.63C527.557 166.97 530.369 168.64 534.441 168.64C538.543 168.64 541.238 166.618 542.527 162.575C543.143 160.642 543.45 157.697 543.45 153.742ZM562.039 153.786C562.039 149.069 562.947 144.865 564.764 141.174C566.58 137.482 569.188 134.626 572.586 132.604C576.014 130.583 579.983 129.572 584.495 129.572C590.911 129.572 596.141 131.535 600.184 135.461C604.256 139.387 606.526 144.719 606.995 151.457L607.083 154.709C607.083 162.004 605.047 167.863 600.975 172.287C596.902 176.682 591.438 178.879 584.583 178.879C577.728 178.879 572.249 176.682 568.147 172.287C564.075 167.893 562.039 161.916 562.039 154.357V153.786ZM574.739 154.709C574.739 159.221 575.589 162.678 577.288 165.08C578.987 167.453 581.419 168.64 584.583 168.64C587.659 168.64 590.062 167.468 591.79 165.124C593.519 162.751 594.383 158.972 594.383 153.786C594.383 149.362 593.519 145.935 591.79 143.503C590.062 141.071 587.63 139.855 584.495 139.855C581.39 139.855 578.987 141.071 577.288 143.503C575.589 145.905 574.739 149.641 574.739 154.709ZM632.044 144.646L640.042 130.451H653.621L640.086 153.742L654.192 178H640.569L632.088 163.059L623.65 178H609.983L624.09 153.742L610.599 130.451H624.222L632.044 144.646Z" fill="#1E88E5"/>
</svg>
