<?xml version="1.0" encoding="utf-8"?>
<!-- Generator: Adobe Illustrator 24.0.2, SVG Export Plug-In . SVG Version: 6.00 Build 0)  -->
<svg version="1.1" id="Layer_1" xmlns="http://www.w3.org/2000/svg" xmlns:xlink="http://www.w3.org/1999/xlink" x="0px" y="0px"
	 viewBox="0 0 612 442" style="enable-background:new 0 0 612 442;" xml:space="preserve">
<style type="text/css">
	.st0{fill:#F37021;}
</style>
<g>
	<polygon class="st0" points="6.3,216.5 42.5,216.5 42.5,232.2 31.3,232.2 31.3,258.6 72,258.6 72,232.2 60.5,232.2 60.5,216.5 
		97.3,216.5 97.3,232.2 85.5,232.2 85.5,309.7 97.3,309.7 97.3,325.1 60.5,325.1 60.5,309.7 72,309.7 72,273.9 31.3,273.9 
		31.3,309.7 42.5,309.7 42.5,325.1 6.3,325.1 6.3,309.7 17.8,309.7 17.8,232.2 6.3,232.2 	"/>
	<polygon class="st0" points="438.5,216.5 512.7,216.5 512.7,246.8 500.2,246.8 500.2,232.2 464.1,232.2 464.1,258.2 495,258.2 
		495,273.6 464.1,273.6 464.1,309.7 499.9,309.7 499.9,288.9 513,288.9 513,325.1 438.5,325.1 438.5,309.7 450.6,309.7 450.6,232.2 
		438.5,232.2 	"/>
	<polygon class="st0" points="114,216.5 188.6,216.5 188.6,246.8 175.8,246.8 175.8,232.2 139.7,232.2 139.7,258.2 170.5,258.2 
		170.5,273.6 139.7,273.6 139.7,309.7 175.4,309.7 175.4,288.9 188.6,288.9 188.6,325.1 114,325.1 114,309.7 126.2,309.7 
		126.2,232.2 114,232.2 	"/>
	<polygon class="st0" points="460.2,201.9 486.8,201.9 493.3,211.4 467.4,211.4 	"/>
	<path class="st0" d="M585.6,262.9c-9.2-2.8-15.4-2.4-25-5.9c-8.2-3.5-9.8-9.4-9.8-13.4c0-4.3,3.6-14.9,16.8-14.9
		c13.1,0,22,10.6,22.3,19.7l0,0l0,0h12.8v-31.9h-12.5v7.1l0.7,2v0.4v-0.4c-0.3,0-0.7-1.2-2-2.4c0,0,0,0,0-0.4
		c-3.6-3.9-11.2-8.7-22.3-8.7c-13.5,0-29.2,10.2-29.2,29.5c0,18.9,11.2,25.2,21,28.3c9.5,3.1,14.4,3.1,22.7,5.9
		c7.9,2.4,13.1,8.2,13.1,16.9c0,7.9-4.3,18.5-21.4,18.5c-16.8,0-23.6-11-25.6-26.4l0,0H535v38.2h12.5V318l0,0l-0.3-2
		c0,0,0.3,1.2,2,2.4v0.4c6.2,5.9,14.8,9.8,25.3,9.8c12.1,0,32.9-7.5,32.9-33.4C607.3,276.3,599.1,267.6,585.6,262.9L585.6,262.9z"/>
	<polygon class="st0" points="409.3,309.7 409.3,232.2 421.4,232.2 421.4,216.5 388.6,216.5 366.6,280.2 366.2,283.4 365.6,280.2 
		343.9,216.5 310.7,216.5 310.7,232.2 322.9,232.2 322.9,309.7 310.7,309.7 310.7,325.1 347.9,325.1 347.9,309.7 336.4,309.7 
		336.4,238.5 336.4,233.8 337.3,237.3 362.6,309.7 369.8,309.7 395.1,237.3 395.8,233.4 396.1,237.7 396.1,309.7 384.6,309.7 
		384.6,325.1 421.4,325.1 421.4,309.7 	"/>
	<path class="st0" d="M144.6,174.8c0,0-0.3,0-12.5,0v-3.9h9.2C141.6,171.7,143.6,173.6,144.6,174.8L144.6,174.8z"/>
	<path class="st0" d="M458.2,174.8c0-1.6,1.3-3.1,3-3.9h6.6v3.9H458.2L458.2,174.8z"/>
	<path class="st0" d="M252,177.6c-5.6,3.1-12.5,2.8-18.1,0h-65.4c-6.2,3.1-13.5,3.1-19.7,0h-16.8v7.5h335.6v-7.5H252L252,177.6z"/>
	<path class="st0" d="M172.5,174.8c1-0.8,3.3-3.5,3.6-3.9h50.6c0.7,1.2,2.3,3.1,3.3,3.9H172.5L172.5,174.8z"/>
	<path class="st0" d="M243.1,172.4c8.5,0,15.7-8.7,15.7-18.9c0-10.6-7.2-19.3-15.7-19.3c-8.9,0-16.1,8.7-16.1,19.3
		C227,163.8,234.2,172.4,243.1,172.4v3.9c-10.8,0-19.4-10.2-19.4-22.8c0-13,8.5-23.2,19.4-23.2c10.5,0,19.1,10.2,19.1,23.2
		c0,12.6-8.5,22.8-19.1,22.8V172.4L243.1,172.4z"/>
	<path class="st0" d="M180.4,150.4c0-14.2-9.8-26-21.7-26c-12.1,0-21.7,11.8-21.7,26c0,14.5,9.5,26,21.7,26
		C170.5,176.4,180.4,165,180.4,150.4h-3.6c0,12.2-8.2,22-18.1,22c-10.2,0-18.4-9.8-18.4-22c0-12.2,8.2-21.6,18.4-21.6
		c9.8,0,18.1,9.4,18.1,21.6H180.4L180.4,150.4z"/>
	<path class="st0" d="M253.3,166.5l-6.6-9.1v-0.4c0.3-0.4,0.3-0.8,0.7-1.2l0,0l9.8,3.1c0.3,0,1,0.4,1,0.8c0-0.4,0.3-2,0.7-2.8
		c-0.3,0.4-1,0.4-1.7,0.4l-9.2-3.1c-0.3,0-0.3-0.4-0.3-0.4c0-0.4,0-1.2,0-1.6v-0.4l9.5-4.3c0,0,1,0,1,0.4c0-0.4-0.7-2.4-0.7-2.8
		c0,0.4-0.7,1.2-1,1.2l0.7-0.4l-9.8,4.3c0,0.4,0,0-0.3,0c0-0.4-0.3-0.8-0.7-0.8c0-0.4-0.3-0.8,0-0.8l5.3-9.8c0.3-0.4,1-0.8,1.3-0.8
		c-0.3,0-1.7-1.2-2.3-1.6c0.3,0,0.3,1.2,0,1.6l-5.3,9.8c-0.3,0-0.3,0-0.7,0c0,0-0.7-0.4-1-0.4c0,0-0.3,0-0.3-0.4l-0.3-11.4
		c0-0.8,0-1.6,0.7-1.6c-0.7,0-2,0-2.6,0c0.3,0,0.7,1.2,0.7,1.6l0.3,11.4c0,0.4-0.3,0.4-0.3,0.4s-0.7,0.4-1,0.8c0,0-0.3,0-0.3-0.4
		l-6.2-9.1c-0.3-0.4-0.3-1.2-0.3-1.6c-0.3,0.4-1.7,1.6-2,2c0.3,0,1,0.4,1.3,0.8l6.2,9.1v0.4c-0.3,0-0.7,0.8-0.7,1.2
		c0,0-0.3,0.4-0.7,0.4l-9.2-3.1c-0.7-0.4-1-0.8-1-1.2c0,0.4-0.7,2.4-0.7,2.8c0,0,1-0.4,1.3,0l9.2,2.8c0.3,0,0.3,0.4,0.3,0.4
		c0,0.4,0,1.2,0,1.6v0.4l-9.2,4.7c-0.3,0-1,0.4-1,0c0,0.4,0.3,2,0.7,2.8c0-0.4,0.7-1.2,1-1.2l8.9-4.7c0.3,0,0.3,0.4,0.3,0.4
		c0.3,0,0.7,0.4,0.7,0.8c0.3,0,0.3,0.4,0.3,0.4l-5.6,9.8c-0.3,0.4-0.7,0.8-1,0.8c0.3,0.4,1.6,1.6,2,1.6c-0.3,0,0-1.2,0-1.6l5.6-9.4
		c0-0.4,0.3-0.4,0.3-0.4c0.3,0.4,0.7,0.4,1,0.4c0.3,0,0.3,0,0.3,0.4l0.7,11.8c0,0.4-0.3,1.2-0.7,1.2c0.3,0,2,0,2.6,0
		c-0.7,0-0.7-0.8-0.7-1.6l-0.7-11.4c0-0.4,0.3-0.4,0.3-0.4c0.3,0,1-0.4,1.3-0.8c0,0,0.3,0,0.3,0.4l6.6,8.6c0,0.4,0.3,1.2,0.3,1.6
		c0.3-0.4,1.3-1.6,1.7-2C253.9,167.3,253.3,166.5,253.3,166.5L253.3,166.5z"/>
	<path class="st0" d="M158,135.4c9.2,0,18.4,1.2,23.6,3.1c0.7,0,0.7,0.8,0,1.2c-5.6,1.6-14.8,2.8-23.3,2.8c-8.5,0.4-17.7,0-23.6-1.6
		c-0.7,0-0.7-0.8,0-0.8C140,137.8,148.8,135.9,158,135.4v-2c-9.8,0.4-19.7,3.1-27.9,6.7c-1,0.4-1,1.2,0,1.2
		c9.2,2.8,18.7,3.1,28.2,2.8c9.2-0.4,19.1-1.2,27.9-4.3c1.3-0.4,1-1.2,0.3-1.2c-8.5-3.1-18.4-5.1-28.6-5.1V135.4L158,135.4z"/>
	<path class="st0" d="M255.6,128.4c-2.3,0.8-6.2,2.4-8.2,2.4c-1.7,0-9.8-0.4-15.4,0c-7.6,0.4-8.2,1.6-8.5,0.8
		c-1.7-3.1-3-7.9-5.6-10.6c-15.4,3.1-30.5,0.4-44.3-5.5V113c1,0.4,1.7,0.4,2.3,0.4c-2.3-3.9-6.2-5.1-8.5-9.4c-1.3-1.2-1.7-3.5-3-4.7
		c0.3,4.3-2.6,7.5-3,11c2,0.8,4.6,0.8,5.6,0.4c1.3-0.4,3,0,3.6,1.2c1,0.4,1.6,1.2,3,1.2v2.4c-1.7-0.4-2-0.8-3.3-1.6
		c-1.7,0.8-3,0.4-3.6-0.4c-0.3-0.4-3.6-0.4-4.9-0.4c-4.3,0-8.9,2-11.2,6.3c-1,2.4-0.7,5.1,0.3,7.1c0.7,1.2,3.6,6.3,5.6,7.9l-2.6,0.8
		c-3.9-4.3-6.9-8.2-6.2-13.4c2-11,10.5-9.4,12.8-14.2c1.7-4.3,2.3-16.9,0.3-20.5c-5.6-2.8-12.5-6.3-13.8-14.2c-0.3-2,0.3-4.3,2-4.7
		c3-0.8,4.9,1.2,7.2,2.4c1-0.8-1-3.5,1.3-3.5c3,0,4.9,7.1,5.9,7.5l-0.3,2.8c-2-0.8-9.2-5.5-9.8-5.9c-1.3-0.8-3-2-3.9-0.4
		c-1.3,2,0.3,4.3,1.3,6.3c15.4,19.3,41-1.2,57.8,12.6c0.3-1.2,0-1.6-0.7-2c-11.5-13-29.9-6.3-44.7-10.6l0.3-2.8
		c18.4,5.5,42.7-3.5,52.2,21.6c6.2,10.6,12.8,27.5,26.3,27.9c10.8,0.4,18.1-4.7,23.3-14.2c7.2-15.7,11.5-33.8,24.3-44.5
		c1.3-0.8,2,0,1.3,0.4c-6.2,7.5-11.8,17.3-14.8,25.6c4.9,22.4,15.7,17.7,18.4,17.3c-0.7-8.2,0-32.7,14.8-38.5
		c3.3-3.1,15.1-12.2,30.5-4.3c-11.5,13-18.4,31.5-20.7,44.5l-12.8,4.3c1-2.4,1-6.3,0.7-10.6c-1.3,0.8-2.6,2-5.6,3.9
		c-1.3,0.4-0.3-2-0.3-2c0-0.8,3.3-2.4,5.9-4.3c-1-9.1-1.7-20.8,4.6-28.3c-12.8,5.1-9.2,37.4-7.9,41.3c-3.6,2-8.5,2-8.5,2l-0.7-5.5
		c-5.6,2.4-15.1,0.8-19.4-16.9C270.3,105.6,266.4,123.7,255.6,128.4L255.6,128.4z"/>
	<path class="st0" d="M455.9,80.4c-0.7-0.8-1-1.2-1.7-1.2c-0.3-0.4,0-0.8,0.3-0.8c0.3-0.4,1,0,1.3,0.8
		C456.2,79.6,456.2,80.4,455.9,80.4L455.9,80.4z"/>
	<path class="st0" d="M162,156.3l6.9,9.4c0.7,0.8,0.7,2,0.3,2.4c1-0.4,2.3-2.4,3-3.1c-0.3,0.4-1.6,0.4-2-0.4l-7.2-9.4
		c0-0.4,0-0.4,0-0.8c0,0,0,0,0.3-0.4c0-0.4,0.3-0.4,0.3-0.4l10.2,4.3c1,0.8,1.3,1.6,1.3,2c0.3-0.8,1-3.1,1.3-3.9
		c-0.3,0.4-1.3,0.8-2,0.4l-10.2-4.3c-0.3,0-0.3,0-0.3-0.4c0-0.4,0-0.4,0-0.8s0.3-0.4,0.3-0.4l10.5-2c1.3-0.4,2,0.4,2,0.8
		c0-0.8-0.3-3.5-0.3-4.3c0,0.4-0.7,1.6-2,2l-10.2,2c-0.3,0-0.3-0.4-0.3-0.4c-0.3-0.4-0.3-0.8-0.7-1.2v-0.4l8.2-8.2
		c1-0.8,2-0.8,2.3-0.4c-0.7-0.8-2-2.8-2.6-3.5c0.3,0.4,0,1.6-0.7,2.8l-7.9,7.9c-0.3,0.4-0.3,0.4-0.3,0c-0.3,0-0.7,0-1-0.4
		c0,0-0.3-0.4,0-0.4l3.6-12.2c0.3-1.2,1.3-1.6,1.7-1.6c-0.7-0.4-3-1.6-3.6-1.6c0.3,0,1,1.6,0.7,2.8l-3.6,11.8c0,0.4-0.3,0.4-0.3,0.4
		c-0.3,0-0.7,0-1,0l-0.3-0.4l-2-12.6c0-1.6,0.7-2.4,0.7-2.4c-0.7,0-2.6,0.4-3.6,0.8c0.3,0,1.3,0.8,1.7,2l2,12.2c0,0.4,0,0.4-0.3,0.8
		c-0.3,0-0.7,0.4-1,0.4h-0.3l-7.2-9.4c-0.7-1.2-0.7-2.4-0.3-2.4c-0.7,0.4-2.3,2-2.6,2.8c0.3,0,1.3,0,2,0.8l7.2,9.4v0.4
		c-0.3,0.4-0.3,0.4-0.7,0.8c0,0,0,0-0.3,0l-9.8-4.3c-1-0.4-1.7-1.6-1.3-2c-0.7,1.2-1,3.5-1.3,4.3c0.3-0.4,1.3-0.8,2.3-0.4l9.8,3.9
		c0,0.4,0,0.4,0,0.4c0,0.4,0,0.8,0,1.2s0,0.4,0,0.4l-10.5,2.4c-1,0-2-0.8-2-1.2c0,1.2,0.3,3.9,0.7,4.7c0-0.4,0.3-1.6,1.7-2l10.2-2.4
		c0,0,0.3,0,0.3,0.4s0,0.4,0.3,0.8c0,0.4,0,0.4,0,0.4l-8.2,7.9c-1,1.2-2,0.8-2,0.4c0,1.2,1.7,3.1,2,3.5c0-0.4,0-1.6,0.7-2.4l8.5-7.9
		c0-0.4,0-0.4,0.3,0c0,0,0.3,0.4,0.7,0.8c0.3,0,0.3,0,0.3,0.4l-3.6,11.8c-0.3,1.2-1.3,2-1.7,1.6c0.7,0.4,2.6,1.6,3.6,1.6
		c-0.7,0-1-1.2-0.7-2.4l3.6-12.2c0,0,0-0.4,0.3-0.4c0.3,0.4,0.7,0.4,1,0.4c0,0,0.3,0,0.3,0.4l2,12.2c0,1.6-0.7,2.4-1,2.8
		c1,0,3-0.8,3.6-1.2c-0.3,0.4-1.3-0.8-1.3-1.6l-2-12.6c0-0.4,0-0.4,0-0.4c0.3,0,0.7-0.4,1-0.4C161.6,155.9,161.6,155.9,162,156.3
		L162,156.3z"/>
	<path class="st0" d="M451.3,82c-0.3-0.4,0-0.8,0-1.2c0.3-1.2,0.7-1.2,0.7-2.4c-1.7-1.6-2-4.7-1-5.5c1-1.2,4.3,0.4,4.3,0.4
		c3-2.8,4-4.7,5.6-5.9c2.3,0,6.9,5.1,6.9,8.2c-0.7,1.2-2.3,3.1-4.9,7.1c1,2.8,1,4.7-0.7,6.3c-0.3,0-1,0-1.6-0.8
		c0.3,3.9,3.9,6.3,5.3,9.4c0,6.3,5.6,14.2-0.7,19.3c-1.3,0.8-2.6,2-3.3,3.5c1,6.3,3,13,3.9,19.7l-6.2,0.4c-0.7,2.4-2.6,6.7-2,9.1
		c0,0-0.3-0.4,0.3,0c1,1.6,1.3,14.5,1,15.7c0,1.6,1,1.6,0.3,4.3c-0.7,0.4-3.3,2.4-3.6,3.5c-1.7,2-6.2,2.4-6.2,1.6
		c0-2,3.3-4.3,3.9-6.7c0.7-9.4,0-18.9-4.3-26.4c-1.6-1.2-3,2-3.9,3.5c1.7,5.9,4.6,12.2,4.3,18.9c0,2,2,4.7,1,7.5l-5.3,3.1H426
		c-0.7-1.2-2-2.4-1.7-3.9h17.1c0-0.8,1.7-0.4,3.3-3.5c0-9.4-8.2-23.2-6.9-27.9c1.7-5.9,4-10.6,6.6-18.5l1.3-0.4
		c-3,11.8-7.2,17.7-6.6,21.2c0.3,2,1,3.5,2,5.9l0.7,2.4c0.3,1.2,1.3,3.9,2,4.7c1,0,1.7-0.8,2.3-1.2c0-1.6-1-3.5-1.7-4.7l-2.6,1.2
		l-0.7-2.4c2,0,3.3-1.6,1.7-2.8c4.6-2.8-1-2,0.7-3.1c2.6-1.6,3.9-7.5,4.3-11c0-0.8,0.3-1.2,1-1.2c2,6.3,2,14.5,5.3,20.5v2
		c-0.3,1.6,0,3.5,0.7,4.7c3,0.4,2.6-0.4,2-4.7c-0.7,0-2-0.4-2.6,0v-2c0.3-0.4,1.7,0,2-0.4c-1-2-1-3.5-1-5.5c0-1.2,0.7-3.5,1.3,1.6
		c1,0.4,2.6-9.1,3-12.2c-6.2,1.6,0-7.1-4.6-7.5l2.3-4.7c0-1.6-1-2.8-2.6-2l-1.3-2c-1-0.4-2-2.4-3.3-3.5c-1,1.2-2.6,3.5-3,5.1
		c-0.3,0.4,0.7,0.8,1,0.4c1-1.2,1.7,1.2,3.3,0.8c0.7-0.8,2.6-1.2,2-2.8l1.3,2c-1.3,0.8-1.3,3.5-1.3,5.5c-2.3,5.1-1.3-2.8-4-2.8
		c-1.7,1.2-2.3-1.9-3.3-1.6l-1.3,0.4c0-2.8,0.3-5.9,0-9.1c2-13.4,4.3-13,4.6-16.9c0-1.6,4.9-4.7,4.6-6.3c0.3,0,1,1.2,1,1.6
		c-0.3,2-3.6,2-3.3,6.3c2-4.3,7.6-3.9,7.9-9.1c-1-3.1,1.3-1.2,1.3-4.3c-0.7-0.8-2.6-3.1-3-4.3c-0.3-0.4,1-2.8-3.6-2.8
		c-0.3,0.4-0.7,2.8-1.3,3.9c-0.3,0.4-1,1.2-0.7,1.6c0,0.4,0.7,0.8,0.7,2.4c-0.3,1.6,0,2.4,0.7,3.1c2.6,1.6,4.6,0,1.7,2
		c0,0.4,0,0.8-0.3,1.2c0-0.4-1-2-1.3-2.4c-0.3,0-2-1.2-1.7-2.8C452,83.5,452,82.7,451.3,82L451.3,82z"/>
	<path class="st0" d="M363,67c0.3,2.8-1,4.7-1,7.5c2.3,6.7,0,11.8,0.7,18.1c-2.6-1.9-3.3-7.1-4.3-12.6c-0.7-4.7,0.3-6.3,0.7-11.4
		L363,67L363,67z"/>
	<path class="st0" d="M356.1,69c-0.3,8.2-1.3,12.2,3.6,25.2c-12.5,6.3-22.7,10.6-37.4,15.7c1.7-12.6,11.8-36.6,20.4-43.3
		C349.8,69,356.1,69,356.1,69L356.1,69z"/>
	<path class="st0" d="M323.9,161.4c-3.3,1.2-3.3,3.5-1.3,5.9c1.3,1.2,2.6,3.1,2.6,3.5h-21c0,1.2,1,2,1.7,3.9h116.3
		c0.7-2-1.3-4.3-2-6.7c-8.2-3.5-8.2-12.6-8.5-22.8c0-0.4-0.7-1.6-0.7-3.5c-1-1.6-6.6-17.7-4-30.7l2-4.3c1.7-2.8-0.3-4.3,1-7.5
		l24.3-5.5c0.3-0.4,0.3-1.6-0.3-2l0,0c0-0.4,0.3,0,0,0l-23.6,5.1c1.3-7.1-4-9.4-1.7-15.3c3.3,4.3,12.1,11.8,16.8,13l2.3-0.4
		c-5.9-3.1-16.4-10.6-22.3-20.5c-0.7,0-1.3-0.8-2-1.2c0,0.8,1.7,3.1,1.3,3.5c0,0-3.9,3.1-11.2-0.8c-2.3,5.5-27.9,19.3-27.9,19.3
		c1,8.7,4.3,14.2,7.9,18.9c0.3,0.8-1-0.8,0,0c5.3,5.1,11.5,7.5,18.4,9.1c1.3,4.7,6.2,20.1,6.6,22.4c0.7,2.4,1.7,2.4,1.7,2.4
		c0.7,0.8,3,5.9,3,7.9l0.7,8.2c0.3,2,2.3,0.4,2.6,2.4l-1,5.1h4.9c-2.6-2.8-1-7.5-4.3-9.4c-0.3-4.7-0.7-8.2-2.3-10.2
		c-1.3-4.7-5.6-17.3-8.2-28.7l1.7-2.8c-7.2,2.4-12.8-0.8-19.4-5.1c-4.9-2.8-2-0.4-0.3-1.6c7.9,4.3,11.8,3.1,17.7,2.4
		c0.7,1.2,2,2.4,2,4.3l-1.7,2.8c1.7-2,3-0.8,4,4.7c1.3,4.7,2.6,8.2,3.6,12.2c1.3,3.9,2.3,9.1,3.3,11.8c0,0,1,0,1.7,1.6
		c2.3,8.7,3,9.8,2.6,13.8c0.7,3.1,4.3,0.4,4,4.3h-86.4c1.3-6.3-1.7-11.8,0-17.7c-3.3-6.3-11.5-11-10.2-19.7
		c4-6.7,16.8-13.4,13.8-21.2c11.8-7.1,17.7,4.7,28.6,3.5c3.9,0,8.2-0.8,11.8-2c-4.6-4.3-8.5-11-10.8-16.9
		c-23,11.4-45.3,20.5-69.9,26.4l-2-0.8c-2.3,0.4-39.7,10.6-38.4,12.6c-14.1,1.2-30.5,8.2-34.2,10.6c-1.7,1.2-2,2,0,2.8
		c15.1,4.7,27.6,1.2,50.9-9.4l-1.6-1.6c-1.3,1.2-20.4,9.1-27.9,10.2c-7.9,1.2-14.8,0.8-18.1-0.4c-1-0.4-1-0.4-0.3-0.8
		c14.8-7.1,43.3-13.4,47.3-7.5c2.3,0.8,3.9,2.4,5.3,4.3c1.3,2,3.9,1.2,5.9,0.8c2.6-0.8,3-3.5,3-6.3l-3-0.4c-1.3,0-6.6,0.8-7.2,1.6
		c-2-1.9-3.9-3.9-6.6-4.7c5.3-2.8,13.8-5.1,18.4-5.5c-4.3,3.5-2.3,7.9-4.6,8.7l3,0.4c0-1.6,0-2.8,0.7-3.5c3-8.7,15.4-9.8,21.7-11.8
		c0,0-3.3,5.1-5.6,6.3c-0.7,12.2-4.3,22.8-4.9,35c3,0,3,3.9,3.6,6.3c-1,2-2.3,0-3.6,0.4c-4.6-2.8,1-7.5-2.6-11.4
		c2-9.8,4.9-19.7,4.9-29.9c-1.3,0-1.6,1.6-2.3,2.8c-1,9.8-3.3,18.9-5.3,27.9c0.7,0.8,2.3,1.6,2.3,3.1c-2.6,2,0,5.5-1,7.9h-29.9
		l-3,3.9h45.3l0.3-2c-6.6-8.7-4.3-21.2-1-30.7l7.9-12.6c6.6-3.1,10.5-12.6,17.4-15.7c0,4.3-4.3,5.9-6.6,8.2
		c-2.6,6.7-10.2,7.5-11.2,14.9c3,3.9,7.2,6.7,10.8,10.2c3.6,2.8,2.6,8.7,5.3,11.4C325.2,159.4,324.5,161,323.9,161.4L323.9,161.4z"
		/>
	<path class="st0" d="M374.1,19.4c-1.3,2.4-4,3.9-2.3,8.2c-3.3,2.4-2.3,5.9-1.3,7.9c-1.6,2-2.6,5.9-0.3,8.2
		c-2.6,3.5,0.7,6.7,1.7,7.9c-1.3,3.5,0,6.3,0,6.3l0,0c-0.3,2.4-3.9,6.3-5.3,7.5c-2,5.9-1.3,18.1-1,26.4c9.2-5.5,18.4-10.6,25.6-18.1
		c-6.2-5.1-11.2-17.3-18.1-16.5c-0.7-8.7-3.6-24,6.6-39.7c1.3-0.8,3.3-1.2,4.3-2c-4.3-0.8-9.8,2.4-13.8-0.4
		C370.2,15.1,372.2,19,374.1,19.4L374.1,19.4L374.1,19.4z"/>
	<path class="st0" d="M396.1,15.4c0,0.4,1.3,1.2,1.3,1.2s1.3-0.4,1.3-0.8c0-0.4,0.3-1.6,0-2c-0.3,0-1.3-0.4-2-0.4
		C396.8,13.5,396.1,15.1,396.1,15.4l-0.7,0.8l-4.6-3.9l0.7-0.8c0,0,2-2.4,3-2.4c1-0.4,6.2,0,7.6,1.2c1,1.2,1.7,2,3,4.7
		c3.6,3.1,9.5,3.1,13.1,6.7c-0.7,1.2,1,3.1-0.3,3.9c-1,0.4-3.3-0.4-3.6,0.4l-0.3,2.4l-1.3-0.4c0,0,0.7-2.8,0-2.8
		c-0.7-0.4-2-1.2-2.6-0.8c-0.3,0.4,0,0.8,0.3,1.6c0,0.8,1.7,1.2,2.6,0.8l1.3,0.4l1.6,0.4c-0.7,2-1,2.8-3.3,2c-0.7,2,3,3.5,3.3,4.3
		c-0.3,0.8-1,1.6-3.3,0c0,0-9.5,11-15.1,14.2c-5.9,3.1-0.3-1.6-0.3-1.6c2.6-1.2,14.1-13,14.1-14.2c-0.3-0.8-1-2.4-1-3.5
		c-1.7-0.8-4.9,0.4-6.2,1.6c0.7,3.5,5.9,21.2,2,48l-0.7-0.8c3.6-26-2.3-46.8-2.3-46.8c-3.3,1.6-5.6,0.4-7.2,0.8
		c-0.7,16.1,10.2,18.5,6.2,39.7c-11.5-2.4-19.7-19.3-26.3-17.7c-0.3-2.8-2.6-7.5-0.3-9.1c-0.7-2.4-1.3-5.5,1.7-7.5
		c-1-3.1-1.3-5.9,1.7-8.2c-0.7-2-0.3-6.3,3.3-7.1c0.3-3.5,1.7-6.3,4.3-7.5c-3-1.6-3.6-5.1-3.6-5.1c2.6,1.9,4.9,3.1,8.9,2.4
		L396.1,15.4L396.1,15.4z"/>
	<path class="st0" d="M284.5,309.7l-0.3-22c0-6.7-3.6-13.8-8.5-17.7c-1-0.4-2.6-1.2-3.9-1.2c1.3,0,3,0,4.6-0.8l0,0
		c4.9-2.8,10.8-10.2,10.8-23.2c0-9.8-3.3-17.3-9.2-22.4c-5.6-4.7-11.8-5.9-18.4-5.9h-50.6v15.7h11.5v77.5h-11.5v15.3h36.1v-15.3
		h-11.5v-34.2h25c8.5,0.4,11.8,7.1,11.8,12.6l1,37H296v-15.3L284.5,309.7L284.5,309.7z M261.2,260.6h-27.6v-28.3c0,0,19.7,0,25.9,0
		c3,0,6.2,0,8.9,1.2c3.3,2,6.2,6.3,6.2,13C274.6,254.7,268.4,260.6,261.2,260.6L261.2,260.6z"/>
	<path class="st0" d="M204.3,363.6c11.8,0,17.1,7.9,17.1,17.7s-5.6,17.3-18.1,17.3h-8.5v27.1h-7.6v-62.2L204.3,363.6L204.3,363.6z
		 M194.8,390.8h9.2c5.6,0,9.5-3.5,9.5-9.8c0-4.7-2.3-9.4-9.2-9.4h-9.5V390.8L194.8,390.8z"/>
	<path class="st0" d="M280.2,425.8H272l-6.6-18.5h-22.7l-6.2,18.5h-8.2l23-62.5h5.3L280.2,425.8L280.2,425.8z M245.7,399h16.8
		l-8.9-24.4L245.7,399L245.7,399z"/>
	<rect x="359" y="363.6" class="st0" width="7.6" height="62.2"/>
	<path class="st0" d="M420.8,377c-4.9-4.7-9.5-6.3-13.5-6.3c-4.9,0-8.9,2.8-8.9,7.1c0,12.2,24.3,11.8,24.3,31.9
		c0,9.4-6.6,16.5-15.7,16.5c-5.9,0-11.2-1.6-15.7-5.5v-11.4c4.3,5.9,9.5,9.1,15.1,9.1c6.2,0,9.2-4.3,9.2-7.9
		c0-12.6-24.6-14.2-24.6-31.1c0-10.2,6.9-16.5,17.1-16.5c4.6,0,8.5,1.2,12.8,4.3L420.8,377L420.8,377z"/>
	<path class="st0" d="M334.7,418.3c-1-1.6-2-3.1-3-5.1c-3.9-7.9-7.2-13.4-12.1-16.9c5.9-2.8,9.2-8.2,9.2-15.3
		c0-10.6-6.9-17.3-18.1-17.3h-13.5v62.2h7.9v-27.1h3.3c4,0,7.2,1.6,14.1,14.2l7.2,13h8.9L334.7,418.3L334.7,418.3z M310.1,390.8
		h-4.9v-19.7h4.9c7.6,0,10.5,3.5,10.5,9.4C320.9,385.7,318.6,390.8,310.1,390.8L310.1,390.8z"/>
</g>
</svg>
