<svg width="35" height="35" viewBox="0 0 35 35" fill="none" xmlns="http://www.w3.org/2000/svg">
<path d="M17.5 3.88889C17.5 2.85749 17.0903 1.86834 16.361 1.13903C15.6317 0.409721 14.6425 0 13.6111 0C12.5797 0 11.5906 0.409721 10.8613 1.13903C10.1319 1.86834 9.72222 2.85749 9.72222 3.88889V5.83333C9.72222 6.34903 9.51736 6.84361 9.15271 7.20826C8.78805 7.57292 8.29348 7.77778 7.77778 7.77778H1.94444C1.42875 7.77778 0.934168 7.98264 0.569514 8.34729C0.20486 8.71195 4.76837e-07 9.20652 4.76837e-07 9.72222V15.5556C4.76837e-07 16.0713 0.20486 16.5658 0.569514 16.9305C0.934168 17.2951 1.42875 17.5 1.94444 17.5H3.88889C4.92029 17.5 5.90944 17.9097 6.63875 18.639C7.36806 19.3683 7.77778 20.3575 7.77778 21.3889C7.77778 22.4203 7.36806 23.4094 6.63875 24.1387C5.90944 24.8681 4.92029 25.2778 3.88889 25.2778H1.94444C1.42875 25.2778 0.934168 25.4826 0.569514 25.8473C0.20486 26.2119 4.76837e-07 26.7065 4.76837e-07 27.2222V33.0556C4.76837e-07 33.5713 0.20486 34.0658 0.569514 34.4305C0.934168 34.7951 1.42875 35 1.94444 35H7.77778C8.29348 35 8.78805 34.7951 9.15271 34.4305C9.51736 34.0658 9.72222 33.5713 9.72222 33.0556V31.1111C9.72222 30.0797 10.1319 29.0906 10.8613 28.3613C11.5906 27.6319 12.5797 27.2222 13.6111 27.2222C14.6425 27.2222 15.6317 27.6319 16.361 28.3613C17.0903 29.0906 17.5 30.0797 17.5 31.1111V33.0556C17.5 33.5713 17.7049 34.0658 18.0695 34.4305C18.4342 34.7951 18.9287 35 19.4444 35H25.2778C25.7935 35 26.2881 34.7951 26.6527 34.4305C27.0174 34.0658 27.2222 33.5713 27.2222 33.0556V27.2222C27.2222 26.7065 27.4271 26.2119 27.7917 25.8473C28.1564 25.4826 28.651 25.2778 29.1667 25.2778H31.1111C32.1425 25.2778 33.1317 24.8681 33.861 24.1387C34.5903 23.4094 35 22.4203 35 21.3889C35 20.3575 34.5903 19.3683 33.861 18.639C33.1317 17.9097 32.1425 17.5 31.1111 17.5H29.1667C28.651 17.5 28.1564 17.2951 27.7917 16.9305C27.4271 16.5658 27.2222 16.0713 27.2222 15.5556V9.72222C27.2222 9.20652 27.0174 8.71195 26.6527 8.34729C26.2881 7.98264 25.7935 7.77778 25.2778 7.77778H19.4444C18.9287 7.77778 18.4342 7.57292 18.0695 7.20826C17.7049 6.84361 17.5 6.34903 17.5 5.83333V3.88889Z" fill="white"/>
</svg>
